<?xml version="1.0" standalone="no"?><!DOCTYPE svg PUBLIC "-//W3C//DTD SVG 1.1//EN"
        "http://www.w3.org/Graphics/SVG/1.1/DTD/svg11.dtd">
<svg t="1550478261365" class="icon" style="" viewBox="0 0 1024 1024" version="1.1" xmlns="http://www.w3.org/2000/svg"
     p-id="12309" xmlns:xlink="http://www.w3.org/1999/xlink" width="16" height="16">
    <defs>
        <style type="text/css"></style>
    </defs>
    <path d="M517.1 51.4c-21.6-10.6-45.5-8.6-63.7 5.5l-1.5 1.1-236.1 253.8H66.7c-36.8 0-66.7 30-66.7 66.8v266.9c0 36.8 29.9 66.7 66.7 66.7h149.1l234.9 252.5 1.8 1.9 2.2 1.5c11.3 7.4 23.8 11.2 36.2 11.2 10.1 0 20.2-2.5 29.5-7.5 22-11.8 35.7-35.1 35.7-60.8V113c0-25.7-15.3-49.9-39-61.6zM511.6 911c0 9.1-4.8 17.6-12.3 21.6-4.1 2.2-10.5 3.8-18.2-0.5l-246-264.4H66.7c-12.3 0-22.2-10-22.2-22.2V378.6c0-12.3 10-22.2 22.2-22.2h168.4l246.5-265c5.6-3.5 11.6-2 15.7 0 7.1 3.5 14.2 11.5 14.2 21.7V911z"
          fill="#ffffff" p-id="12310"></path>
</svg>
